<?xml version="1.0" encoding="utf-8"?>
<svg viewBox="10 53.9897 7.0574 12.0239" xmlns="http://www.w3.org/2000/svg">
  <path style="color:#000000;font-style:normal;font-variant:normal;font-weight:normal;font-stretch:normal;font-size:medium;line-height:normal;font-family:sans-serif;font-variant-ligatures:normal;font-variant-position:normal;font-variant-caps:normal;font-variant-numeric:normal;font-variant-alternates:normal;font-feature-settings:normal;text-indent:0;text-align:start;text-decoration:none;text-decoration-line:none;text-decoration-style:solid;text-decoration-color:#000000;letter-spacing:normal;word-spacing:normal;text-transform:none;writing-mode:lr-tb;direction:ltr;text-orientation:mixed;dominant-baseline:auto;baseline-shift:baseline;text-anchor:start;white-space:normal;shape-padding:0;clip-rule:nonzero;display:inline;overflow:visible;visibility:visible;opacity:1;isolation:auto;mix-blend-mode:normal;color-interpolation:sRGB;color-interpolation-filters:linearRGB;solid-color:#000000;solid-opacity:1;vector-effect:none;fill:#ffffff;fill-opacity:1;fill-rule:nonzero;stroke:none;stroke-width:1;stroke-linecap:round;stroke-linejoin:round;stroke-miterlimit:4;stroke-dasharray:none;stroke-dashoffset:0;stroke-opacity:1;marker:none;color-rendering:auto;image-rendering:auto;shape-rendering:auto;text-rendering:auto;enable-background:new" d="m 13.492188,54.005859 c -0.129887,0.0021 -0.253871,0.05461 -0.345704,0.146485 l -2.983534,2.961437 c -0.4908328,0.471254 0.235777,1.197864 0.707032,0.707031 L 13,55.712891 v 9.792968 c -0.0096,0.676161 1.009563,0.676161 1,0 v -9.792968 l 2.130018,2.130018 c 0.471254,0.490807 1.197838,-0.235776 0.707032,-0.707031 l -2.983534,-2.983534 c -0.09566,-0.09571 -0.226027,-0.148557 -0.361328,-0.146485 z" id="path14327-21" transform="matrix(1, 0, 0, 1, 0.0005010900204069912, 0.000672086956910789)"/>
  <path style="color:#000000;font-style:normal;font-variant:normal;font-weight:normal;font-stretch:normal;font-size:medium;line-height:normal;font-family:sans-serif;font-variant-ligatures:normal;font-variant-position:normal;font-variant-caps:normal;font-variant-numeric:normal;font-variant-alternates:normal;font-feature-settings:normal;text-indent:0;text-align:start;text-decoration:none;text-decoration-line:none;text-decoration-style:solid;text-decoration-color:#000000;letter-spacing:normal;word-spacing:normal;text-transform:none;writing-mode:lr-tb;direction:ltr;text-orientation:mixed;dominant-baseline:auto;baseline-shift:baseline;text-anchor:start;white-space:normal;shape-padding:0;clip-rule:nonzero;display:inline;overflow:visible;visibility:visible;opacity:1;isolation:auto;mix-blend-mode:normal;color-interpolation:sRGB;color-interpolation-filters:linearRGB;solid-color:#000000;solid-opacity:1;vector-effect:none;fill:#ffffff;fill-opacity:1;fill-rule:nonzero;stroke:none;stroke-width:1;stroke-linecap:round;stroke-linejoin:round;stroke-miterlimit:4;stroke-dasharray:none;stroke-dashoffset:0;stroke-opacity:1;marker:none;color-rendering:auto;image-rendering:auto;shape-rendering:auto;text-rendering:auto;enable-background:new" d="M 13.548 54.006 C 13.273 54.01 13.053 54.236 13.056 54.512 L 13.056 64.305 L 10.926 62.175 C 10.455 61.684 9.728 62.41 10.219 62.882 L 13.203 65.865 C 13.398 66.06 13.714 66.06 13.91 65.865 L 16.893 62.86 C 17.384 62.388 16.657 61.662 16.186 62.153 L 14.056 64.305 L 14.056 54.512 C 14.059 54.23 13.83 54.001 13.548 54.006 Z" id="path14329-3" transform="matrix(1, 0, 0, 1, 0.0009172435384243727, -0.0162046067416739)"/>
</svg>